<svg width="47" height="59" viewBox="0 0 47 59" fill="none" xmlns="http://www.w3.org/2000/svg">
<path d="M0 17.5C0 13.3579 3.35786 10 7.5 10C11.6421 10 15 13.3579 15 17.5V41.5C15 45.6421 11.6421 49 7.5 49C3.35786 49 0 45.6421 0 41.5V17.5Z" fill="#874FFF"/>
<path d="M8 51.5C8 47.3579 11.3579 44 15.5 44H30.5C34.6421 44 38 47.3579 38 51.5C38 55.6421 34.6421 59 30.5 59H15.5C11.3579 59 8 55.6421 8 51.5Z" fill="#24CB71"/>
<path d="M32 34.5C32 30.3579 35.3579 27 39.5 27C43.6421 27 47 30.3579 47 34.5V41.5C47 45.6421 43.6421 49 39.5 49C35.3579 49 32 45.6421 32 41.5V34.5Z" fill="#00B6FF"/>
<path d="M20 34.5C20 30.3579 23.3579 27 27.5 27C31.6421 27 35 30.3579 35 34.5C35 38.6421 31.6421 42 27.5 42C23.3579 42 20 38.6421 20 34.5Z" fill="#00B6FF"/>
<path d="M9 7.5C9 3.35786 12.3579 0 16.5 0H30.5C34.6421 0 38 3.35786 38 7.5C38 11.6421 34.6421 15 30.5 15H16.5C12.3579 15 9 11.6421 9 7.5Z" fill="#FF3737"/>
<path d="M31 17.5C31 13.3579 34.3579 10 38.5 10C42.6421 10 46 13.3579 46 17.5C46 21.6421 42.6421 25 38.5 25C34.3579 25 31 21.6421 31 17.5Z" fill="#FF7237"/>
</svg>
