<svg width="1677" height="896" viewBox="0 0 1677 896" fill="none" xmlns="http://www.w3.org/2000/svg">
<rect width="1677" height="896" fill="#FFF5B2"/>
<rect x="597" y="330" width="485" height="174" fill="#253740"/>
<ellipse cx="839.5" cy="504" rx="242.5" ry="78" fill="#253740"/>
<rect x="597" y="347" width="459" height="157" fill="#2D424D"/>
<ellipse cx="826.5" cy="504" rx="229.5" ry="78" fill="#2D424D"/>
<path d="M837.83 256.939C840.599 256.585 843.402 256.583 846.171 256.934L1220.83 304.399C1221.53 307.435 1222.64 310.309 1224.11 312.961L779.166 405.212C773.807 406.323 768.255 406.084 763.011 404.516L456 312.69V305.855L837.83 256.939Z" fill="#1E2C33"/>
<path d="M1211.5 301.5H1222L1224 313L1214 310L1211.5 301.5Z" fill="#1E2C33"/>
<path d="M485.5 302L456 300.5V312.5L463 310.5L485.5 302Z" fill="#1E2C33"/>
<path d="M837.331 245.034C840.1 244.68 842.903 244.678 845.672 245.028L1220.09 292.464C1220.32 295.578 1220.98 298.573 1222.02 301.387L778.667 393.307C773.308 394.418 767.756 394.179 762.512 392.61L455.838 300.886C454.741 298.571 453.382 296.405 451.801 294.424L837.331 245.034Z" fill="#2D424D"/>
<rect x="793.893" y="324.04" width="25.6694" height="179.127" rx="12.8347" transform="rotate(-71.523 793.893 324.04)" fill="#FFD464"/>
<rect x="938" y="352" width="31" height="228" rx="12.8347" fill="#FFD464"/>
<ellipse cx="954" cy="578.5" rx="31" ry="25.5" fill="#E16B5A"/>
<rect x="969" y="607" width="16" height="70" fill="#FFD464"/>
<rect x="954" y="607" width="7" height="70" fill="#FFD464"/>
<rect x="938" y="607" width="7" height="70" fill="#FFD464"/>
<rect x="923" y="607" width="7" height="70" fill="#FFD464"/>
<rect x="930" y="607" width="8" height="70" fill="#FFE399"/>
<rect x="945" y="607" width="9" height="70" fill="#FFE399"/>
<rect x="961" y="607" width="9" height="70" fill="#FFE399"/>
<rect x="923" y="579" width="62" height="28" fill="#E16B5A"/>
</svg>
