<svg width="1677" height="896" viewBox="0 0 1677 896" fill="none" xmlns="http://www.w3.org/2000/svg">
<rect width="1677" height="896" fill="#C6E0FF"/>
<path d="M553 230L558 224L563 230L575 247L589.5 276L599 300L610 338.5L617 373.5L622 411L623 453L622.5 501.5L617.5 556L613.5 582.5L609 603.5L605 618.5L600 633.5L595 645L589.5 654L581.5 663L573 669.5L567 672L558 673L549 672L543 669.5L534.5 663L526.5 654L521 645L516 633.5L511 618.5L507 603.5L502.5 582.5L498.5 556L493.5 501.5L493 453L494 411L499 373.5L506 338.5L517 300L526.5 276L541 247L553 230Z" fill="#9AD5CF"/>
<path d="M496 411L622 437H622.5L623 458.5V486.5L622 511L620 526.5L493.5 502V462V444.5L494 417.5L496 411Z" fill="#FBE487"/>
<path d="M496 396.5L622 422.5L622.5 443.5L494 419V410.5L496 396.5Z" fill="#F38181"/>
<path d="M510.5 494V502L507.5 476.5L506 450.5V425L507 399.5L508.5 380.5L511 362L514.5 345L519 327L526 307L531.5 292.5L537.5 282.5L542.5 275.5L545 272.5V275L541.5 290.5L535 315L529.5 338L523 366L517.5 395.5L514 421.5L511.5 452L510.5 477V494Z" fill="white" fill-opacity="0.5"/>
<path d="M584.5 265.5L573.5 245L578 258L584.5 277.5L591.5 303L598 330.5L603 356L606.5 383.5L609.5 410.5L611 436.5L611.5 468L611 500L608.5 529L606.5 552L605.5 565.5L601.5 592L597 614.5L592 632.5L586.5 646.5L580.5 657.5L574.5 665.5L568.5 671.5L571 670.5L577 667.5L582 664L587.5 657.5L592 650L599.5 635.5L605.5 618.5L609.5 602.5L614.5 578L617.5 558L620.5 534.5L622.5 508.5V477V447V420.5L619.5 392.5L614.5 362L609.5 338.5L603 312.5L596.5 293.5L590.5 278.5L584.5 265.5Z" fill="black" fill-opacity="0.2"/>
<path d="M558 249V641" stroke="#C1C1C1"/>
<path d="M746.029 232.043L757.7 248.577L771.93 277.036L781.262 300.611L792.138 338.676L799.067 373.328L804.009 410.386L805.001 452.038L804.504 500.243L799.535 554.399L795.578 580.611L791.14 601.329L787.21 616.065L782.327 630.712L777.557 641.683L772.469 650.01L765.08 658.321L760.99 661.449L749.515 646.017L745.634 640.798L741.588 645.889L729.141 661.547L724.923 658.321L717.534 650.01L712.446 641.683L707.676 630.712L702.794 616.065L698.864 601.329L694.425 580.611L690.468 554.399L685.499 500.243L685.002 452.038L685.994 410.386L690.936 373.328L697.866 338.676L708.741 300.611L718.073 277.036L732.303 248.577L743.974 232.043L745.002 230.81L746.029 232.043Z" fill="#FDF9D4" stroke="#F38181" stroke-width="10"/>
<path d="M744.502 470L744.502 497L688.75 540L687.003 519.5L744.502 470Z" fill="#F38181"/>
<path d="M744.145 470L744.145 497L799.897 540L801.644 519.5L744.145 470Z" fill="#F38181"/>
<path d="M745.328 409L745.328 436L689.576 479L687.829 458.5L745.328 409Z" fill="#F38181"/>
<path d="M744.97 409L744.97 436L800.722 479L802.469 458.5L744.97 409Z" fill="#F38181"/>
<path d="M744.328 526L744.328 553L693.5 592.2L691.753 571.7L744.328 526Z" fill="#F38181"/>
<path d="M743.97 526L743.97 553L796.501 593.516L798.248 573.016L743.97 526Z" fill="#F38181"/>
<path d="M697.502 493V501L694.502 475.5L693.002 449.5V424L694.002 398.5L695.502 379.5L698.002 361L701.502 344L706.002 326L713.002 306L718.502 291.5L724.502 281.5L729.502 274.5L732.002 271.5V274L728.502 289.5L722.002 314L716.502 337L710.002 365L704.502 394.5L701.002 420.5L698.502 451L697.502 476V493Z" fill="white" fill-opacity="0.5"/>
<path d="M771.503 264.5L760.503 244L765.003 257L771.503 276.5L778.503 302L785.003 329.5L790.003 355L793.503 382.5L796.503 409.5L798.003 435.5L798.503 467L798.003 499L795.503 528L793.503 551L792.503 564.5L788.503 591L784.003 613.5L779.003 631.5L773.503 645.5L767.503 656.5L760.003 668.5L769.503 660.5L775.003 654.5L779.003 649L786.503 634.5L792.503 617.5L796.503 601.5L801.503 577L804.503 557L807.503 533.5L809.503 507.5V476V446V419.5L806.503 391.5L801.503 361L796.503 337.5L790.003 311.5L783.503 292.5L777.503 277.5L771.503 264.5Z" fill="black" fill-opacity="0.2"/>
<path d="M745.001 247V606" stroke="#C1C1C1"/>
<path d="M927 226L932 220L937 226L949 243L963.5 272L973 296L984 334.5L991 369.5L996 407L997 449L996.5 497.5L991.5 552L987.5 578.5L983 599.5L979 614.5L974 629.5L969 641L963.5 650L955.5 659L947 665.5L941 668L932 669L923 668L917 665.5L908.5 659L900.5 650L895 641L890 629.5L885 614.5L881 599.5L876.5 578.5L872.5 552L867.5 497.5L867 449L868 407L873 369.5L880 334.5L891 296L900.5 272L915 243L927 226Z" fill="#FDF9D4"/>
<path d="M870.5 440H867.5V467.5L870.5 466L873.5 466.5L876.5 467.5L879 470L881.5 473L883.5 476.5L886 479.5L888 482L891.5 484H895L898.5 483.5L901.5 480.5L903.5 477.5L905 474.5L906.5 472L908.5 469L911.5 467L915.5 466H918L921.5 467.5L923.5 470L926 473L928.5 476.5L930.5 479.5L933 481.5L935.5 484L937.5 485H941L942.5 483.5L944.5 482L947 479.5L949.5 476.5L951.5 473L953.5 470L955 468.5L957.5 467L961 466L963.5 467L966.5 468.5L969 470.5L971 473L973 476.5L975 479.5L977 481.5L979.5 484L982 485H984.5L987.5 484L990 482.5L992.5 479.5L994.5 476.5L996.5 473V445.5L995 448L993 450L990.5 453L987.5 456L984.5 457.5L981 457L978 456L975 453L973 450L971 446.5L968 442.5L966.5 440L963 438.5H960L956.5 440L954 442L951.5 445.5L949.5 448L947 451.5L945 454.5L942 457L938.5 457.5H936L933 456L931 454.5L928.5 451.5L926 448L923.5 444.5L921 442L919 440H916H913L909 442.5L906.5 445.5L903.5 450L901.5 453L898.5 456L895 457.5H891.5L888 456L885 453L882.5 450.5L880 447L878 442.5L874 440H870.5Z" fill="#9DD5CA" stroke="#9DD5CA"/>
<path d="M871 481.5H868V497.5L869 508H874L877 509L879.5 511.5L882 514.5L884 518L886.5 521L888.5 523.5L892 525.5H895.5L899 525L902 522L904 519L905.5 516L907 513.5L909 510.5L912 508.5L916 507.5H918.5L922 509L924 511.5L926.5 514.5L929 518L931 521L933.5 523L936 525.5L938 526.5H941.5L943 525L945 523.5L947.5 521L950 518L952 514.5L954 511.5L955.5 510L958 508.5L961.5 507.5L964 508.5L967 510L969.5 512L971.5 514.5L973.5 518L975.5 521L977.5 523L980 525.5L982.5 526.5H985L988 525.5L990.5 524L993 521L995 518L996 497V489.5L993.5 491.5L991 494.5L988 497.5L985 499L981.5 498.5L978.5 497.5L975.5 494.5L973.5 491.5L971.5 488L968.5 484L967 481.5L963.5 480H960.5L957 481.5L954.5 483.5L952 487L950 489.5L947.5 493L945.5 496L942.5 498.5L939 499H936.5L933.5 497.5L931.5 496L929 493L926.5 489.5L924 486L921.5 483.5L919.5 481.5H916.5H913.5L909.5 484L907 487L904 491.5L902 494.5L899 497.5L895.5 499H892L888.5 497.5L885.5 494.5L883 492L880.5 488.5L878.5 484L874.5 481.5H871Z" fill="#9DD5CA" stroke="#9DD5CA"/>
<path d="M872 522.5H870.5L871.5 535.5L872.5 548L875 549L878 550L880.5 552.5L883 555.5L885 559L887.5 562L889.5 564.5L893 566.5H896.5L900 566L903 563L905 560L906.5 557L908 554.5L910 551.5L913 549.5L917 548.5H919.5L923 550L925 552.5L927.5 555.5L930 559L932 562L934.5 564L937 566.5L939 567.5H942.5L944 566L946 564.5L948.5 562L951 559L953 555.5L955 552.5L956.5 551L959 549.5L962.5 548.5L965 549.5L968 551L970.5 553L972.5 555.5L974.5 559L976.5 562L978.5 564L981 566.5L983.5 567.5H986L989 566.5L991 550L992.5 535.5L989 538.5L986 540L982.5 539.5L979.5 538.5L976.5 535.5L974.5 532.5L972.5 529L969.5 525L968 522.5L964.5 521H961.5L958 522.5L955.5 524.5L953 528L951 530.5L948.5 534L946.5 537L943.5 539.5L940 540H937.5L934.5 538.5L932.5 537L930 534L927.5 530.5L925 527L922.5 524.5L920.5 522.5H917.5H914.5L910.5 525L908 528L905 532.5L903 535.5L900 538.5L896.5 540H893L889.5 538.5L886.5 535.5L884 533L881.5 529.5L879.5 525L875.5 522.5H872Z" fill="#9DD5CA" stroke="#9DD5CA"/>
<path d="M884.5 490V498L881.5 472.5L880 446.5V421L881 395.5L882.5 376.5L885 358L888.5 341L893 323L900 303L905.5 288.5L911.5 278.5L916.5 271.5L919 268.5V271L915.5 286.5L909 311L903.5 334L897 362L891.5 391.5L888 417.5L885.5 448L884.5 473V490Z" fill="white" fill-opacity="0.5"/>
<path d="M958.5 261.5L947.5 241L952 254L958.5 273.5L965.5 299L972 326.5L977 352L980.5 379.5L983.5 406.5L985 432.5L985.5 464L985 496L982.5 525L980.5 548L979.5 561.5L975.5 588L971 610.5L966 628.5L960.5 642.5L954.5 653.5L948.5 661.5L942.5 667.5L945 666.5L951 663.5L956 660L961.5 653.5L966 646L973.5 631.5L979.5 614.5L983.5 598.5L988.5 574L991.5 554L994.5 530.5L996.5 504.5V473V443V416.5L993.5 388.5L988.5 358L983.5 334.5L977 308.5L970.5 289.5L964.5 274.5L958.5 261.5Z" fill="black" fill-opacity="0.2"/>
<path d="M931.5 247.5V641" stroke="#C1C1C1"/>
<path d="M1120.03 229.043L1131.7 245.577L1145.93 274.036L1155.26 297.611L1166.14 335.676L1173.07 370.328L1178.01 407.386L1179 449.038L1178.5 497.243L1173.53 551.399L1169.58 577.611L1165.14 598.329L1161.21 613.065L1156.33 627.712L1151.55 638.683L1146.47 647.01L1142.63 651.328L1121.85 626.306L1117.83 621.474L1114.02 626.468L1095.21 651.142L1091.53 647.01L1086.44 638.683L1081.67 627.712L1076.79 613.065L1072.86 598.329L1068.42 577.611L1064.47 551.399L1059.5 497.243L1059 449.038L1059.99 407.386L1064.93 370.328L1071.86 335.676L1082.74 297.611L1092.07 274.036L1106.3 245.577L1117.97 229.043L1119 227.81L1120.03 229.043Z" fill="#FDF9D4" stroke="#F59FBA" stroke-width="10"/>
<path d="M1071.5 490V498L1068.5 472.5L1067 446.5V421L1068 395.5L1069.5 376.5L1072 358L1075.5 341L1080 323L1087 303L1092.5 288.5L1098.5 278.5L1103.5 271.5L1106 268.5V271L1102.5 286.5L1096 311L1090.5 334L1084 362L1078.5 391.5L1075 417.5L1072.5 448L1071.5 473V490Z" fill="white" fill-opacity="0.5"/>
<path d="M1145.5 261.5L1134.5 241L1139 254L1145.5 273.5L1152.5 299L1159 326.5L1164 352L1167.5 379.5L1170.5 406.5L1172 432.5L1172.5 464L1172 496L1169.5 525L1167.5 548L1166.5 561.5L1162.5 588L1158 610.5L1153 628.5L1147.5 642.5L1142.5 658.5L1150.5 650L1153 646L1160.5 631.5L1166.5 614.5L1170.5 598.5L1175.5 574L1178.5 554L1181.5 530.5L1183.5 504.5V473V443V416.5L1180.5 388.5L1175.5 358L1170.5 334.5L1164 308.5L1157.5 289.5L1151.5 274.5L1145.5 261.5Z" fill="black" fill-opacity="0.2"/>
<path d="M1110 232H1128L1142 648L1118.5 619L1092.5 648L1110 232Z" fill="#F59FBA"/>
<path d="M1119 249V606" stroke="#C1C1C1"/>
</svg>
