<svg width="1677" height="896" viewBox="0 0 1677 896" fill="none" xmlns="http://www.w3.org/2000/svg">
<g clip-path="url(#clip0_46_863)">
<rect width="1677" height="896" fill="#6400E3"/>
<path d="M804.912 238C842.913 238 875.297 275.543 887.681 328.168C908.918 287.787 947.921 260.723 992.522 260.723C1042.94 260.723 1086.2 295.3 1104.74 344.603C1121.69 347.109 1138.33 353.233 1154.13 362.818C1175.36 375.701 1194.66 394.583 1210.91 418.386C1214.7 423.937 1218.3 429.732 1221.72 435.747C1229.39 428.907 1237.42 422.927 1245.75 417.871C1266.99 404.989 1289.74 398.358 1312.73 398.358C1335.43 398.358 1357.91 404.828 1378.92 417.402C1395.03 394.062 1414.08 375.523 1435.02 362.818C1456.25 349.936 1479.01 343.306 1501.99 343.306C1524.98 343.306 1547.73 349.936 1568.97 362.818C1590.2 375.701 1609.49 394.583 1625.74 418.386C1641.99 442.189 1654.89 470.447 1663.68 501.548C1671.12 527.868 1675.51 555.788 1676.68 584.153H1677V599.193C1677 599.344 1677 599.494 1677 599.645H1677V897.265H604.744C604.37 897.268 603.996 897.269 603.621 897.269C603.246 897.269 602.871 897.268 602.497 897.265H165.934V897.047C73.6049 891.97 0 796.957 0 680.491C0.000125564 560.773 77.7731 463.722 173.711 463.722C201.867 463.722 228.459 472.082 251.979 486.92C256.34 415.383 309.099 358.88 373.544 358.88C398.741 358.88 422.151 367.519 441.581 382.315C448.616 313.86 500.123 260.723 562.619 260.723C613.028 260.723 656.287 295.295 674.826 344.591C689.358 346.74 703.663 351.547 717.404 358.914C722.688 290.787 759.852 238 804.912 238Z" fill="white" fill-opacity="0.5"/>
<path d="M1085.8 398.916C1130.26 398.916 1168.42 425.798 1184.77 464.125C1192.95 465.192 1201.05 467.099 1208.99 469.83C1223.25 447.174 1244.31 432.842 1267.8 432.842C1302.89 432.842 1332.54 464.827 1342.22 508.764C1350.79 506.873 1359.49 505.914 1368.23 505.914C1388.5 505.914 1408.57 511.068 1427.3 521.083C1446.03 531.097 1463.05 545.776 1477.38 564.281C1477.97 565.047 1478.56 565.822 1479.14 566.6C1493.01 559.625 1507.39 556.066 1521.87 556.066C1542.24 556.066 1562.41 563.111 1581.23 576.798C1600.05 590.486 1617.16 610.548 1631.56 635.839C1645.97 661.131 1657.39 691.157 1665.19 724.202C1672.44 754.948 1676.42 787.748 1676.94 820.973H1677V895.593H1310.41V895.594H448.661V894.086C445.908 894.279 443.131 894.393 440.334 894.418C365.451 895.1 304.045 834.584 303.179 759.251C302.482 698.58 341.268 646.802 395.51 628.59C392.725 617.575 391.21 605.741 391.21 593.419C391.21 534.328 426.022 486.424 468.964 486.424C489.215 486.424 507.657 497.078 521.494 514.534C534.239 469.603 575.729 436.677 624.944 436.677C663.532 436.677 697.37 456.92 716.328 487.32C721.081 483.983 725.974 480.963 730.992 478.28C749.72 468.265 769.793 463.111 790.065 463.111C810.336 463.111 830.409 468.265 849.137 478.28C867.866 488.294 884.883 502.973 899.217 521.478C902.56 525.794 905.739 530.3 908.751 534.976C915.516 529.659 922.601 525.008 929.952 521.078C945.374 512.831 961.708 507.883 978.314 506.392C978.313 506.232 978.312 506.071 978.312 505.911C978.312 446.819 1026.43 398.917 1085.8 398.916Z" fill="white" fill-opacity="0.5"/>
<ellipse cx="850.515" cy="786.837" rx="133.755" ry="110.004" fill="white"/>
<rect x="844.527" y="737.946" width="832.474" height="158.894" fill="white"/>
<path d="M1407.49 745.803C1407.49 728.721 1410.98 711.805 1417.75 696.022C1424.52 680.24 1434.45 665.9 1446.96 653.82C1459.47 641.741 1474.33 632.159 1490.68 625.622C1507.03 619.084 1524.55 615.72 1542.25 615.72C1559.94 615.72 1577.46 619.084 1593.81 625.622C1610.16 632.159 1625.02 641.741 1637.53 653.82C1650.04 665.9 1659.97 680.24 1666.74 696.023C1673.51 711.805 1677 728.721 1677 745.803L1542.25 745.803L1407.49 745.803Z" fill="white"/>
<path d="M1261.76 773.741C1261.76 756.658 1265.25 739.742 1272.02 723.96C1278.79 708.178 1288.72 693.837 1301.23 681.758C1313.74 669.678 1328.6 660.097 1344.95 653.559C1361.3 647.022 1378.82 643.657 1396.51 643.657C1414.21 643.657 1431.73 647.022 1448.08 653.559C1464.43 660.097 1479.29 669.678 1491.8 681.758C1504.31 693.837 1514.24 708.178 1521.01 723.96C1527.78 739.743 1531.27 756.658 1531.27 773.741L1396.51 773.741L1261.76 773.741Z" fill="white"/>
<path d="M928.373 806.917C928.373 789.834 931.859 772.918 938.631 757.136C945.402 741.353 955.328 727.013 967.841 714.933C980.354 702.854 995.209 693.272 1011.56 686.735C1027.91 680.198 1045.43 676.833 1063.13 676.833C1080.82 676.833 1098.34 680.198 1114.69 686.735C1131.04 693.272 1145.9 702.854 1158.41 714.934C1170.92 727.013 1180.85 741.353 1187.62 757.136C1194.39 772.918 1197.88 789.834 1197.88 806.917L1063.13 806.917L928.373 806.917Z" fill="white"/>
<path d="M1088.08 745.803C1088.08 728.721 1091.57 711.805 1098.34 696.022C1105.11 680.24 1115.04 665.9 1127.55 653.82C1140.06 641.741 1154.92 632.159 1171.27 625.622C1187.62 619.084 1205.14 615.72 1222.84 615.72C1240.53 615.72 1258.05 619.084 1274.4 625.622C1290.75 632.159 1305.61 641.741 1318.12 653.82C1330.63 665.9 1340.56 680.24 1347.33 696.023C1354.1 711.805 1357.59 728.721 1357.59 745.803L1222.83 745.803L1088.08 745.803Z" fill="white"/>
<ellipse cx="1149.97" cy="643.657" rx="93.828" ry="69.8436" fill="white"/>
<ellipse cx="519.491" cy="786.834" rx="133.755" ry="110.004" fill="white"/>
<rect x="513.504" y="737.944" width="832.474" height="158.894" fill="white"/>
<path d="M1076.47 745.801C1076.47 728.718 1079.96 711.803 1086.73 696.02C1093.5 680.238 1103.43 665.898 1115.94 653.818C1128.45 641.739 1143.31 632.157 1159.66 625.62C1176 619.082 1193.53 615.718 1211.22 615.718C1228.92 615.718 1246.44 619.082 1262.79 625.62C1279.14 632.157 1294 641.739 1306.51 653.818C1319.02 665.898 1328.95 680.238 1335.72 696.021C1342.49 711.803 1345.98 728.719 1345.98 745.801L1211.22 745.801L1076.47 745.801Z" fill="white"/>
<path d="M930.74 773.739C930.74 756.656 934.226 739.74 940.998 723.958C947.77 708.175 957.696 693.835 970.208 681.756C982.721 669.676 997.577 660.094 1013.93 653.557C1030.27 647.02 1047.8 643.655 1065.49 643.655C1083.19 643.655 1100.71 647.02 1117.06 653.557C1133.41 660.094 1148.26 669.676 1160.78 681.756C1173.29 693.835 1183.22 708.175 1189.99 723.958C1196.76 739.74 1200.25 756.656 1200.25 773.739L1065.49 773.739L930.74 773.739Z" fill="white"/>
<path d="M597.35 806.915C597.35 789.832 600.835 772.916 607.607 757.134C614.379 741.351 624.305 727.011 636.818 714.931C649.331 702.852 664.186 693.27 680.535 686.733C696.884 680.195 714.407 676.831 732.103 676.831C749.799 676.831 767.321 680.196 783.67 686.733C800.019 693.27 814.874 702.852 827.387 714.931C839.9 727.011 849.826 741.351 856.598 757.134C863.37 772.916 866.855 789.832 866.855 806.915L732.103 806.915L597.35 806.915Z" fill="white"/>
<path d="M757.059 745.801C757.059 728.718 760.544 711.803 767.316 696.02C774.088 680.238 784.014 665.898 796.527 653.818C809.04 641.739 823.895 632.157 840.244 625.62C856.593 619.082 874.116 615.718 891.812 615.718C909.508 615.718 927.03 619.082 943.379 625.62C959.728 632.157 974.583 641.739 987.096 653.818C999.609 665.898 1009.54 680.238 1016.31 696.021C1023.08 711.803 1026.56 728.719 1026.56 745.801L891.812 745.801L757.059 745.801Z" fill="white"/>
<ellipse cx="818.945" cy="643.655" rx="93.828" ry="69.8436" fill="white"/>
<ellipse cx="1004.6" cy="606.987" rx="67.8755" ry="69.8436" fill="white"/>
<rect x="886.375" y="425.536" width="51.9788" height="336.104" fill="white"/>
<ellipse cx="850.515" cy="786.837" rx="133.755" ry="110.004" fill="white"/>
<rect x="844.527" y="737.946" width="832.474" height="158.894" fill="white"/>
<path d="M1407.49 745.806C1407.49 728.723 1410.98 711.807 1417.75 696.025C1424.52 680.242 1434.45 665.902 1446.96 653.822C1459.47 641.743 1474.33 632.161 1490.68 625.624C1507.03 619.087 1524.55 615.722 1542.25 615.722C1559.94 615.722 1577.46 619.087 1593.81 625.624C1610.16 632.161 1625.02 641.743 1637.53 653.823C1650.04 665.902 1659.97 680.242 1666.74 696.025C1673.51 711.807 1677 728.723 1677 745.806L1542.25 745.806L1407.49 745.806Z" fill="white"/>
<path d="M1261.76 773.743C1261.76 756.66 1265.25 739.744 1272.02 723.962C1278.79 708.179 1288.72 693.839 1301.23 681.76C1313.74 669.68 1328.6 660.098 1344.95 653.561C1361.3 647.024 1378.82 643.659 1396.51 643.659C1414.21 643.659 1431.73 647.024 1448.08 653.561C1464.43 660.099 1479.29 669.68 1491.8 681.76C1504.31 693.839 1514.24 708.18 1521.01 723.962C1527.78 739.745 1531.27 756.66 1531.27 773.743L1396.51 773.743L1261.76 773.743Z" fill="white"/>
<path d="M928.373 806.917C928.373 789.835 931.859 772.919 938.631 757.137C945.402 741.354 955.328 727.014 967.841 714.934C980.354 702.855 995.209 693.273 1011.56 686.736C1027.91 680.198 1045.43 676.834 1063.13 676.834C1080.82 676.834 1098.34 680.198 1114.69 686.736C1131.04 693.273 1145.9 702.855 1158.41 714.934C1170.92 727.014 1180.85 741.354 1187.62 757.137C1194.39 772.919 1197.88 789.835 1197.88 806.918L1063.13 806.917L928.373 806.917Z" fill="white"/>
<path d="M1088.08 745.806C1088.08 728.723 1091.57 711.807 1098.34 696.025C1105.11 680.242 1115.04 665.902 1127.55 653.822C1140.06 641.743 1154.92 632.161 1171.27 625.624C1187.62 619.087 1205.14 615.722 1222.84 615.722C1240.53 615.722 1258.05 619.087 1274.4 625.624C1290.75 632.161 1305.61 641.743 1318.12 653.823C1330.63 665.902 1340.56 680.242 1347.33 696.025C1354.1 711.807 1357.59 728.723 1357.59 745.806L1222.83 745.806L1088.08 745.806Z" fill="white"/>
<ellipse cx="1149.97" cy="643.657" rx="93.828" ry="69.8436" fill="white"/>
<ellipse cx="519.491" cy="786.833" rx="133.755" ry="110.004" fill="white"/>
<rect x="513.504" y="737.946" width="832.474" height="158.894" fill="white"/>
<path d="M1076.47 745.801C1076.47 728.718 1079.96 711.802 1086.73 696.02C1093.5 680.237 1103.43 665.897 1115.94 653.818C1128.45 641.738 1143.31 632.156 1159.66 625.619C1176 619.082 1193.53 615.717 1211.22 615.717C1228.92 615.717 1246.44 619.082 1262.79 625.619C1279.14 632.156 1294 641.738 1306.51 653.818C1319.02 665.897 1328.95 680.237 1335.72 696.02C1342.49 711.802 1345.98 728.718 1345.98 745.801L1211.22 745.801L1076.47 745.801Z" fill="white"/>
<path d="M930.74 773.738C930.74 756.655 934.226 739.74 940.998 723.957C947.77 708.175 957.696 693.834 970.208 681.755C982.721 669.676 997.577 660.094 1013.93 653.556C1030.27 647.019 1047.8 643.654 1065.49 643.654C1083.19 643.654 1100.71 647.019 1117.06 653.556C1133.41 660.094 1148.26 669.676 1160.78 681.755C1173.29 693.834 1183.22 708.175 1189.99 723.957C1196.76 739.74 1200.25 756.655 1200.25 773.738L1065.49 773.738L930.74 773.738Z" fill="white"/>
<path d="M597.35 806.913C597.35 789.83 600.835 772.914 607.607 757.132C614.379 741.349 624.305 727.009 636.818 714.93C649.331 702.85 664.186 693.268 680.535 686.731C696.884 680.194 714.407 676.829 732.103 676.829C749.799 676.829 767.321 680.194 783.67 686.731C800.019 693.268 814.874 702.85 827.387 714.93C839.9 727.009 849.826 741.349 856.598 757.132C863.37 772.914 866.855 789.83 866.855 806.913L732.103 806.913L597.35 806.913Z" fill="white"/>
<path d="M757.059 745.801C757.059 728.718 760.544 711.802 767.316 696.02C774.088 680.237 784.014 665.897 796.527 653.818C809.04 641.738 823.895 632.156 840.244 625.619C856.593 619.082 874.116 615.717 891.812 615.717C909.508 615.717 927.03 619.082 943.379 625.619C959.728 632.156 974.583 641.738 987.096 653.818C999.609 665.897 1009.54 680.237 1016.31 696.02C1023.08 711.802 1026.56 728.718 1026.56 745.801L891.812 745.801L757.059 745.801Z" fill="white"/>
<ellipse cx="818.945" cy="643.657" rx="93.828" ry="69.8436" fill="white"/>
<ellipse cx="1004.6" cy="606.986" rx="67.8755" ry="69.8436" fill="white"/>
<rect x="886.375" y="425.536" width="51.9788" height="336.104" fill="white"/>
<path d="M899.473 382.522C870.67 410.699 848.96 438.134 839.403 448.948C819.296 445.343 817.455 397.749 824.062 350.561C830.669 303.373 852.325 268.041 872.432 271.646C892.539 275.251 906.08 335.334 899.473 382.522Z" fill="#F5606E"/>
<path d="M938.526 382.522C967.329 410.699 989.038 438.134 998.595 448.948C1018.7 445.343 1020.54 397.749 1013.94 350.561C1007.33 303.373 985.673 268.041 965.566 271.646C945.459 275.251 931.918 335.334 938.526 382.522Z" fill="#F5606E"/>
<path d="M942.248 385.913C966.905 410.03 985.49 433.513 993.671 442.769C1010.88 439.683 1015.09 394.31 1009.43 353.919C1003.78 313.529 981.09 274.608 963.877 277.694C946.663 280.78 936.593 345.522 942.248 385.913Z" fill="#C74B57"/>
<ellipse cx="918.583" cy="459.761" rx="32.7651" ry="77.2388" fill="#F39C0E"/>
<ellipse cx="918.583" cy="455.127" rx="32.7651" ry="69.5149" fill="#EAB000"/>
<ellipse cx="918.584" cy="450.493" rx="24.5739" ry="58.7015" fill="#F7E056"/>
<ellipse cx="918.584" cy="431.955" rx="24.5739" ry="58.7015" fill="#FEF3B7"/>
<path d="M918.583 123C951.758 123 978.652 209.452 978.652 316.097C978.652 347.815 976.273 377.747 972.058 404.149H865.109C860.894 377.747 858.514 347.815 858.514 316.097C858.514 209.453 885.408 123.001 918.583 123Z" fill="#ECECEC"/>
<path d="M918.582 123C931.818 123 944.054 136.761 953.981 160.074H883.184C893.111 136.761 905.346 123 918.582 123Z" fill="#F5606E"/>
<path d="M865.34 404.149H971.827L968.322 417.366C967.974 418.681 966.783 419.597 965.423 419.597H871.744C870.383 419.597 869.193 418.681 868.844 417.366L865.34 404.149Z" fill="#572227"/>
<rect x="913.123" y="274.388" width="8.19129" height="169.925" fill="#F5606E"/>
<ellipse cx="918.583" cy="224.955" rx="35.4956" ry="40.1642" fill="#F5606E"/>
<ellipse cx="918.584" cy="224.955" rx="27.3043" ry="30.8955" fill="#2D0462"/>
<path d="M667.686 219.932C667.686 216.659 669.532 209.839 672.34 207.787C673.87 206.669 674.335 200.2 674.335 206.572C674.335 212.276 678.266 219.538 680.319 224.789C683.237 232.251 668.196 216.429 666.356 214.129C665.725 213.34 662.02 211.43 665.322 211.43C668.976 211.43 672.498 212.645 676.256 212.645C686.466 212.645 678.412 217.262 673.301 222.091C672.489 222.858 662.467 233.27 661.849 232.481C659.772 229.824 665.026 220.229 665.026 216.288" stroke="#F5606E" stroke-width="3" stroke-linecap="round"/>
<path d="M351.135 162.346C354.642 163.018 361.572 166.068 363.195 168.999C364.079 170.596 370.916 172.339 364.087 171.031C357.974 169.86 349.385 171.883 343.336 172.641C334.741 173.717 354.784 163.521 357.626 162.349C358.602 161.946 361.409 159.027 360.731 161.978C359.981 165.244 357.956 168.143 357.185 171.502C355.089 180.627 351.795 172.481 347.669 166.921C347.013 166.038 337.912 154.943 338.884 154.554C342.158 153.242 351.362 159.908 355.585 160.717" stroke="#F5606E" stroke-width="3" stroke-linecap="round"/>
<path d="M1284.32 50.128C1284.32 46.8558 1286.17 40.0351 1288.98 37.9834C1290.51 36.8655 1290.97 30.3962 1290.97 36.7689C1290.97 42.4725 1294.9 49.7344 1296.96 54.9858C1299.87 62.4471 1284.83 46.6251 1282.99 44.3256C1282.36 43.5365 1278.66 41.6268 1281.96 41.6268C1285.61 41.6268 1289.13 42.8412 1292.89 42.8412C1303.1 42.8412 1295.05 47.4582 1289.94 52.287C1289.13 53.054 1279.1 63.4664 1278.49 62.6774C1276.41 60.0207 1281.66 50.4259 1281.66 46.4846" stroke="#F5606E" stroke-width="3" stroke-linecap="round"/>
<path d="M1540.92 71.9596C1544.37 72.8432 1551.06 76.3082 1552.47 79.3315C1553.23 80.9788 1559.93 83.1341 1553.21 81.4134C1547.19 79.8734 1538.48 81.3689 1532.38 81.7569C1523.73 82.3081 1544.47 73.3541 1547.39 72.357C1548.4 72.0148 1551.41 69.2729 1550.52 72.1762C1549.53 75.3892 1547.3 78.1586 1546.29 81.463C1543.53 90.4406 1540.84 82.1123 1537.13 76.314C1536.54 75.3931 1528.26 63.7687 1529.26 63.4391C1532.62 62.3292 1541.32 69.5405 1545.48 70.6047" stroke="#F5606E" stroke-width="3" stroke-linecap="round"/>
<path d="M767.96 122.223C768.126 122.185 768.292 122.145 768.458 122.102M768.458 122.102C774.557 120.526 780.944 115.577 786.283 112.507C791.453 109.535 787.198 114.653 785.913 116.218C782.007 120.975 776.641 124.483 771.654 128.025C771.154 128.381 769.376 124.206 768.458 122.102ZM768.458 122.102C768.226 121.569 768.048 121.168 767.96 121.009C765.902 117.249 761.776 114.372 759.982 110.686C757.555 105.7 758.391 109.87 759.317 112.575C760.804 116.921 761.278 121.43 761.869 125.926M761.869 125.926C762.25 128.833 762.681 131.734 763.466 134.582M761.869 125.926C759.684 126.247 756.992 127.787 755.327 128.97C754.566 129.511 744.654 133.578 747.422 134.3C750.644 135.141 755.374 134.368 758.652 134.368C760.231 134.368 761.842 134.443 763.466 134.582M761.869 125.926C762.135 125.887 762.393 125.866 762.641 125.866M763.466 134.582C763.533 134.826 763.603 135.069 763.675 135.312C763.931 136.167 764.063 136.661 764.12 136.889M763.466 134.582C763.617 134.595 763.768 134.609 763.919 134.623M764.12 136.889C764.176 137.113 764.161 137.084 764.12 136.889ZM764.12 136.889C764.042 136.521 763.872 135.562 763.919 134.623M763.919 134.623C763.946 134.089 764.042 133.562 764.267 133.153C766.938 128.274 768.228 132.392 770.103 133.153C773.288 134.446 791.298 141.177 779.633 137.741C774.721 136.294 769.261 135.119 763.919 134.623ZM763.971 135.582C763.971 137.582 764.43 140.149 764.179 142.372M764.179 142.372C764.042 143.59 763.692 144.705 762.937 145.568C762.852 145.664 762.646 145.979 762.403 146.365M764.179 142.372C763.591 143.804 763.026 145.19 762.403 146.365M764.179 142.372C765.704 138.658 767.382 134.632 770.62 133.153M762.403 146.365C761.585 147.668 760.353 149.787 761.976 147.12C762.122 146.88 762.264 146.628 762.403 146.365Z" stroke="#F5606E" stroke-width="3" stroke-linecap="round"/>
<path d="M1119.54 169.41C1119.52 169.579 1119.5 169.749 1119.49 169.92M1119.49 169.92C1118.99 176.199 1121.59 183.851 1122.75 189.898C1123.87 195.755 1120.42 190.064 1119.36 188.339C1116.14 183.096 1114.57 176.88 1112.85 171.011C1112.67 170.422 1117.2 170.102 1119.49 169.92ZM1119.49 169.92C1120.07 169.873 1120.5 169.836 1120.68 169.805C1124.91 169.085 1128.97 166.122 1133.04 165.627C1138.55 164.958 1134.33 164.389 1131.47 164.383C1126.88 164.372 1122.46 163.35 1118.02 162.443M1118.02 162.443C1115.15 161.857 1112.26 161.318 1109.32 161.132M1118.02 162.443C1118.43 160.274 1117.85 157.227 1117.27 155.267C1117.01 154.371 1116.4 143.675 1114.81 146.056C1112.97 148.828 1112.16 153.552 1111.09 156.651C1110.57 158.144 1109.98 159.642 1109.32 161.132M1118.02 162.443C1117.97 162.707 1117.91 162.959 1117.82 163.193M1109.32 161.132C1109.06 161.116 1108.81 161.103 1108.56 161.092C1107.67 161.055 1107.16 161.019 1106.92 160.998M1109.32 161.132C1109.25 161.27 1109.19 161.409 1109.13 161.547M1106.92 160.998C1106.69 160.979 1106.72 160.974 1106.92 160.998ZM1106.92 160.998C1107.3 161.045 1108.26 161.196 1109.13 161.547M1109.13 161.547C1109.63 161.746 1110.09 162.01 1110.41 162.355C1114.15 166.47 1109.83 166.348 1108.5 167.872C1106.24 170.462 1094.01 185.294 1101.06 175.387C1104.03 171.214 1106.92 166.435 1109.13 161.547ZM1108.21 161.284C1106.32 160.632 1103.74 160.229 1101.72 159.268M1101.72 159.268C1100.61 158.741 1099.67 158.046 1099.1 157.051C1099.04 156.94 1098.81 156.642 1098.52 156.287M1101.72 159.268C1100.56 158.245 1099.43 157.259 1098.52 156.287M1101.72 159.268C1104.73 161.919 1107.99 164.818 1108.34 168.361M1098.52 156.287C1097.56 155.089 1095.96 153.233 1097.95 155.637C1098.13 155.853 1098.32 156.07 1098.52 156.287Z" stroke="#F5606E" stroke-width="3" stroke-linecap="round"/>
<path d="M190.309 336.529C190.304 336.373 190.296 336.217 190.286 336.059M190.286 336.059C189.897 330.282 185.962 323.529 183.815 318.112C181.734 312.866 186.305 317.751 187.706 319.231C191.964 323.73 194.575 329.264 197.304 334.468C197.577 334.99 192.732 335.688 190.286 336.059ZM190.286 336.059C189.666 336.153 189.2 336.227 189.01 336.271C184.549 337.307 180.593 340.377 176.267 341.193C170.417 342.297 175.056 342.439 178.147 342.189C183.113 341.787 188.039 342.323 192.975 342.753M192.975 342.753C196.166 343.031 199.362 343.265 202.576 343.17M192.975 342.753C192.853 344.771 193.928 347.501 194.839 349.238C195.255 350.033 197.497 359.743 198.859 357.427C200.444 354.731 200.624 350.346 201.321 347.421C201.658 346.011 202.081 344.59 202.576 343.17M192.975 342.753C192.99 342.508 193.022 342.273 193.075 342.051M202.576 343.17C202.851 343.162 203.126 343.152 203.401 343.139C204.37 343.093 204.926 343.08 205.183 343.078M202.576 343.17C202.622 343.039 202.668 342.907 202.715 342.775M205.183 343.078C205.435 343.075 205.4 343.083 205.183 343.078ZM205.183 343.078C204.773 343.069 203.711 343.017 202.715 342.775M202.715 342.775C202.15 342.638 201.607 342.439 201.217 342.152C196.566 338.73 201.246 338.455 202.459 336.944C204.52 334.377 215.556 319.74 209.397 329.416C206.803 333.492 204.383 338.114 202.715 342.775ZM203.753 342.933C205.893 343.358 208.736 343.495 211.062 344.192M211.062 344.192C212.336 344.574 213.455 345.124 214.216 345.981C214.302 346.077 214.594 346.328 214.956 346.627M211.062 344.192C212.469 345.022 213.831 345.821 214.956 346.627M211.062 344.192C207.413 342.041 203.462 339.686 202.57 336.482M214.956 346.627C216.176 347.634 218.181 349.184 215.672 347.168C215.447 346.987 215.207 346.807 214.956 346.627Z" stroke="#F5606E" stroke-width="3" stroke-linecap="round"/>
<path d="M315.487 65.2784C315.462 65.1241 315.434 64.9693 315.404 64.8142M315.404 64.8142C314.283 59.1169 309.514 52.8278 306.691 47.6759C303.957 42.6862 309.119 47.0533 310.699 48.3745C315.5 52.3899 318.799 57.6096 322.172 62.4884C322.51 62.9778 317.787 64.1853 315.404 64.8142ZM315.404 64.8142C314.8 64.9735 314.347 65.0957 314.164 65.1596C309.865 66.6628 306.327 70.1318 302.134 71.402C296.464 73.1195 301.09 72.7677 304.128 72.191C309.01 71.2644 313.97 71.2745 318.927 71.1773M318.927 71.1773C322.132 71.1144 325.336 71.0066 328.516 70.5718M318.927 71.1773C319.063 73.194 320.478 75.7913 321.604 77.4202C322.119 78.1651 325.582 87.5711 326.64 85.1261C327.871 82.2804 327.491 77.9057 327.812 74.9264C327.966 73.4908 328.206 72.0339 328.516 70.5718M318.927 71.1773C318.911 70.9317 318.913 70.6947 318.937 70.4692M328.516 70.5718C328.788 70.5346 329.06 70.495 329.332 70.4528C330.288 70.3045 330.839 70.2328 331.094 70.203M328.516 70.5718C328.545 70.436 328.575 70.3002 328.605 70.1643M331.094 70.203C331.344 70.1738 331.31 70.1847 331.094 70.203ZM331.094 70.203C330.686 70.2377 329.624 70.299 328.605 70.1643M328.605 70.1643C328.026 70.0878 327.461 69.9481 327.037 69.7045C321.981 66.7996 326.595 66.0293 327.608 64.3999C329.328 61.632 338.425 45.9215 333.54 56.1867C331.482 60.5101 329.668 65.3577 328.605 70.1643ZM329.655 70.2106C331.835 70.4062 334.677 70.2403 337.075 70.6852M337.075 70.6852C338.389 70.929 339.57 71.3563 340.436 72.1271C340.533 72.2134 340.855 72.4316 341.253 72.6899M337.075 70.6852C338.578 71.3596 340.033 72.0088 341.253 72.6899M337.075 70.6852C333.176 68.9363 328.953 67.0173 327.658 63.9299M341.253 72.6899C342.592 73.5607 344.781 74.8876 342.033 73.1518C341.786 72.9958 341.525 72.842 341.253 72.6899Z" stroke="#F5606E" stroke-width="3" stroke-linecap="round"/>
<path d="M124.887 129.087C124.887 126.803 124.687 124.416 124.868 122.097M124.868 122.097C124.935 121.25 125.052 120.413 125.248 119.593C125.484 118.608 125.849 117.669 126.268 116.748M124.868 122.097C123.882 122.191 122.931 122.271 121.985 122.321M124.868 122.097C125.3 122.056 125.739 122.012 126.187 121.966C127.385 121.845 131.221 121.107 131.955 120.295M126.268 116.748C126.425 116.403 126.59 116.061 126.759 115.72M126.268 116.748C126.696 116.656 127.124 116.563 127.551 116.467M126.268 116.748C124.37 117.158 122.463 117.543 120.557 117.931M126.759 115.72C127.61 113.998 128.56 112.306 129.11 110.462C129.594 108.844 132.034 103.115 132.034 103.276C132.034 105.65 131.884 108.056 132.359 110.396C132.697 112.065 133.321 113.686 133.969 115.289M126.759 115.72C127.021 115.971 127.285 116.22 127.551 116.467M126.759 115.72C125.574 114.586 124.414 113.41 123.263 112.176C120.966 109.714 118.298 106.736 116.599 103.697M133.969 115.289C134.757 117.24 135.581 119.163 135.969 121.109C136.014 121.34 136.074 121.564 136.141 121.778M133.969 115.289C139.258 114.659 149.288 113.615 149.288 114.253C149.288 114.385 146.889 115.351 146.689 115.44C142.853 117.141 139.617 119.526 136.141 121.778M133.969 115.289C132.205 115.499 130.969 115.663 130.807 115.703C129.727 115.972 128.64 116.225 127.551 116.467M136.141 121.778C136.756 123.736 138.007 124.892 135.174 122.791C135.075 122.717 134.976 122.643 134.877 122.569M136.141 121.778C135.976 121.885 135.81 121.992 135.644 122.098C135.413 122.246 135.155 122.403 134.877 122.569M134.877 122.569C133.872 121.818 132.901 121.062 131.955 120.295M134.877 122.569C131.299 124.695 122.579 133.506 121.985 137.302C121.729 138.938 123.588 132.258 123.588 131.328C123.588 128.225 122.883 125.256 121.985 122.321M131.955 120.295C130.428 119.057 128.969 117.79 127.551 116.467M131.955 120.295C131.988 120.259 132.014 120.223 132.034 120.186M116.599 103.697C116.312 103.184 116.053 102.669 115.827 102.155C115.358 101.082 115.898 102.102 116.599 103.697ZM116.599 103.697C117.329 105.36 118.235 107.648 118.354 108.847C118.664 111.962 119.578 114.955 120.557 117.931M120.557 117.931C121.039 119.394 121.536 120.853 121.985 122.321M120.557 117.931C116.28 118.803 112.006 119.692 107.85 120.912C106.825 121.213 105.701 121.373 107.345 121.373C110.143 121.373 112.882 121.732 115.647 122.098C117.945 122.403 119.955 122.429 121.985 122.321M135.804 123.056C136.206 124.893 138.704 126.429 140.074 127.68C140.544 128.109 142.941 129.304 142.941 129.073" stroke="#F5606E" stroke-width="3" stroke-linecap="round"/>
<path d="M606.376 57.3741C606.376 55.0902 606.175 52.703 606.357 50.3844M606.357 50.3844C606.423 49.5378 606.54 48.7004 606.737 47.8805C606.972 46.8958 607.337 45.9565 607.756 45.0359M606.357 50.3844C605.37 50.4784 604.419 50.5579 603.473 50.6083M606.357 50.3844C606.788 50.3433 607.227 50.2994 607.675 50.2539C608.873 50.1323 612.709 49.3939 613.443 48.5825M607.756 45.0359C607.913 44.6908 608.078 44.3484 608.247 44.0071M607.756 45.0359C608.184 44.9435 608.612 44.85 609.039 44.7549M607.756 45.0359C605.858 45.4452 603.952 45.8302 602.046 46.2186M608.247 44.0071C609.098 42.2852 610.048 40.5934 610.599 38.7495C611.082 37.1318 613.522 31.4028 613.522 31.5633C613.522 33.937 613.373 36.3429 613.847 38.6836C614.186 40.3521 614.809 41.9738 615.457 43.5765M608.247 44.0071C608.51 44.2584 608.774 44.5076 609.039 44.7549M608.247 44.0071C607.062 42.8739 605.903 41.6979 604.751 40.4636C602.455 38.0013 599.787 35.0233 598.087 31.9847M615.457 43.5765C616.246 45.5277 617.069 47.4509 617.457 49.3968C617.503 49.6271 617.562 49.8511 617.63 50.0654M615.457 43.5765C620.746 42.9465 630.776 41.9023 630.776 42.5403C630.776 42.6727 628.378 43.6382 628.177 43.727C624.342 45.4284 621.106 47.813 617.63 50.0654M615.457 43.5765C613.694 43.7866 612.457 43.9505 612.295 43.9908C611.215 44.2591 610.129 44.5121 609.039 44.7549M617.63 50.0654C618.244 52.0231 619.495 53.1795 616.663 51.078C616.563 51.0041 616.464 50.9301 616.365 50.8561M617.63 50.0654C617.464 50.1725 617.299 50.2793 617.132 50.3858C616.901 50.5334 616.644 50.6904 616.365 50.8561M616.365 50.8561C615.361 50.1053 614.389 49.3495 613.443 48.5825M616.365 50.8561C612.788 52.9822 604.067 61.793 603.473 65.5894C603.217 67.2259 605.076 60.545 605.076 59.6157C605.076 56.5124 604.371 53.5435 603.473 50.6083M613.443 48.5825C611.917 47.3445 610.458 46.0773 609.039 44.7549M613.443 48.5825C613.476 48.5464 613.503 48.5102 613.522 48.4739M598.087 31.9847C597.8 31.4716 597.541 30.9569 597.316 30.4426C596.846 29.3697 597.386 30.3891 598.087 31.9847ZM598.087 31.9847C598.818 33.6472 599.723 35.9353 599.842 37.1343C600.153 40.2498 601.066 43.2427 602.046 46.2186M602.046 46.2186C602.527 47.6817 603.024 49.1408 603.473 50.6083M602.046 46.2186C597.768 47.0902 593.495 47.9791 589.339 49.1991C588.314 49.5 587.189 49.6606 588.833 49.6606C591.631 49.6606 594.37 50.0192 597.135 50.3858C599.433 50.6904 601.443 50.7164 603.473 50.6083M617.292 51.3435C617.695 53.1807 620.193 54.7165 621.562 55.9674C622.032 56.3966 624.43 57.5915 624.43 57.3601" stroke="#F5606E" stroke-width="3" stroke-linecap="round"/>
<path d="M1510.34 232.724C1509.46 234.864 1508.74 237.165 1507.68 239.279M1507.68 239.279C1507.29 240.051 1506.86 240.799 1506.37 241.504C1505.77 242.352 1505.07 243.115 1504.32 243.844M1507.68 239.279C1508.64 239.506 1509.56 239.735 1510.47 239.989M1507.68 239.279C1507.26 239.18 1506.83 239.081 1506.39 238.981C1505.22 238.712 1501.35 238.18 1500.35 238.706M1504.32 243.844C1504.04 244.117 1503.76 244.386 1503.47 244.651M1504.32 243.844C1503.89 243.794 1503.45 243.745 1503.01 243.698M1504.32 243.844C1506.26 244.066 1508.19 244.314 1510.12 244.558M1503.47 244.651C1502.01 245.993 1500.47 247.275 1499.25 248.827C1498.18 250.189 1493.7 254.778 1493.76 254.628C1494.67 252.404 1495.73 250.197 1496.18 247.852C1496.51 246.181 1496.54 244.463 1496.55 242.754M1503.47 244.651C1503.32 244.332 1503.17 244.014 1503.01 243.698M1503.47 244.651C1504.14 246.091 1504.78 247.563 1505.39 249.087C1506.6 252.127 1507.96 255.769 1508.39 259.158M1496.55 242.754C1496.56 240.674 1496.52 238.61 1496.9 236.663C1496.95 236.432 1496.98 236.203 1496.99 235.981M1496.55 242.754C1491.35 241.657 1481.55 239.435 1481.8 238.837C1481.85 238.713 1484.46 238.574 1484.69 238.554C1488.93 238.184 1492.88 236.982 1496.99 235.981M1496.55 242.754C1498.28 243.12 1499.5 243.361 1499.67 243.375C1500.78 243.468 1501.9 243.578 1503.01 243.698M1496.99 235.981C1497.17 233.951 1496.44 232.468 1498.29 235.341C1498.35 235.442 1498.42 235.543 1498.48 235.644M1496.99 235.981C1497.19 235.934 1497.39 235.886 1497.58 235.84C1497.86 235.775 1498.16 235.71 1498.48 235.644M1498.48 235.644C1499.14 236.668 1499.76 237.686 1500.35 238.706M1498.48 235.644C1502.65 234.793 1514.19 229.32 1516.2 225.953C1517.06 224.501 1512.77 230.168 1512.41 231.038C1511.22 233.946 1510.75 236.953 1510.47 239.989M1500.35 238.706C1501.31 240.353 1502.19 242.006 1503.01 243.698M1500.35 238.706C1500.31 238.73 1500.27 238.755 1500.23 238.783M1508.39 259.158C1508.46 259.73 1508.51 260.295 1508.52 260.849C1508.55 262.004 1508.43 260.877 1508.39 259.158ZM1508.39 259.158C1508.34 257.367 1508.37 254.934 1508.71 253.773C1509.61 250.755 1509.9 247.659 1510.12 244.558M1510.12 244.558C1510.23 243.034 1510.33 241.508 1510.47 239.989M1510.12 244.558C1514.47 245.106 1518.81 245.637 1523.17 245.82C1524.25 245.865 1525.36 246.073 1523.82 245.549C1521.2 244.656 1518.77 243.446 1516.32 242.22C1514.28 241.202 1512.41 240.536 1510.47 239.989M1497.8 234.891C1498.13 233.041 1496.37 230.805 1495.57 229.196C1495.29 228.644 1493.5 226.76 1493.41 226.976" stroke="#F5606E" stroke-width="3" stroke-linecap="round"/>
</g>
<defs>
<clipPath id="clip0_46_863">
<rect width="1677" height="896" fill="white"/>
</clipPath>
</defs>
</svg>
